{"title":"Angry Birds 2016 720p Dual 5.1 x264 AAC-PEISR","uid":15481060,"size":2501975145,"categoryP":"video","categoryS":"hd___movies","magnet":"?xt=urn:btih:8b4f21579fa7db4574acb6cc62a7c76096dc2880&amp;dn=Angry+Birds+2016+720p+Dual+5.1+x264+AAC-PEISR&amp;tr=udp%3A%2F%2Ftracker.leechers-paradise.org%3A6969&amp;tr=udp%3A%2F%2Fzer0day.ch%3A1337&amp;tr=udp%3A%2F%2Fopen.demonii.com%3A1337&amp;tr=udp%3A%2F%2Ftracker.coppersurfer.tk%3A6969&amp;tr=udp%3A%2F%2Fexodus.desync.com%3A6969","seeders":0,"leechers":1,"uploader":"VitorPIRA","files":2,"time":1470254730,"description":"http://extraimago.com/images/2016/08/03/6c70b0c460a1eeedc18d99251df2a1b2.jpg\r\n \nhttp://www.imdb.com/title/tt1985949/\r\n\r\nUma pequena comunidade em um paraíso de aves que não voam, há muito tempo vivem pacificamente, com exceção de Red , um pássaro com uma raiva constante. Os pássaros se surpreenderam com a aparição inesperada de porcos liderados por Leonard em sua ilha. O bando se juntou para investigar os porcos e suas intenções. \r\n\r\nVideo\r\nID : 1\r\nFormat : AVC\r\nFormat/Info : Advanced Video Codec\r\nFormat profile :   \r\nFormat settings, CABAC : Yes\r\nFormat settings, ReFrames : 4 frames\r\nCodec ID : V_MPEG4/ISO/AVC\r\nDuration : 1 h 37 min\r\nBit rate : 1 470 kb/s\r\nWidth : 1 280 pixels\r\nHeight : 688 pixels\r\nDisplay aspect ratio : 1.85:1\r\nFrame rate mode : Constant\r\nFrame rate : 23.976 (24000/1001) FPS\r\nColor space : YUV\r\nChroma subsampling : 4:2:0\r\nBit depth : 8 bits\r\nScan type : Progressive\r\nBits/(Pixel*Frame) : 0.070\r\nStream size : 1 022 MiB (43%)\r\nDefault : Yes\r\nForced : No\r\n\r\nAudio #1\r\nID : 2\r\nFormat : DTS\r\nFormat/Info : Digital Theater Systems\r\nMode : 16\r\nFormat settings, Endianness : Big\r\nCodec ID : A_DTS\r\nDuration : 1 h 37 min\r\nBit rate mode : Constant\r\nBit rate : 1 509 kb/s\r\nChannel(s) : 6 channels\r\nChannel positions : Front: L C R, Side: L R, LFE\r\nSampling rate : 48.0 kHz\r\nFrame rate : 93.750 FPS (512 spf)\r\nBit depth : 24 bits\r\nCompression mode : Lossy\r\nStream size : 1.02 GiB (44%)\r\nTitle : Inglês 5.1\r\nLanguage : English\r\nDefault : Yes\r\nForced : No\r\n\r\nAudio #2\r\nID : 3\r\nFormat : AC-3\r\nFormat/Info : Audio Coding 3\r\nMode extension : CM (complete main)\r\nFormat settings, Endianness : Big\r\nCodec ID : A_AC3\r\nDuration : 1 h 37 min\r\nBit rate mode : Constant\r\nBit rate : 384 kb/s\r\nChannel(s) : 6 channels\r\nChannel positions : Front: L C R, Side: L R, LFE\r\nSampling rate : 48.0 kHz\r\nFrame rate : 31.250 FPS (1536 spf)\r\nCompression mode : Lossy\r\nDelay relative to video : -83 ms\r\nStream size : 267 MiB (11%)\r\nTitle : Português 5.1\r\nLanguage : Portuguese\r\nDefault : No\r\nForced : Yes\r\n\r\nText\r\nID : 4\r\nFormat : UTF-8\r\nCodec ID : S_TEXT/UTF8\r\nCodec ID/Info : UTF-8 Plain Text\r\nTitle : Português\r\nLanguage : Portuguese\r\nDefault : Yes\r\nForced : No\r\n\r\nMenu\r\n00:00:00.000 : :00:00:00.000\r\n00:07:05.300 : :00:07:05.091\r\n00:13:38.193 : :00:13:38.109\r\n00:20:22.765 : :00:20:22.638\r\n00:25:38.706 : :00:25:38.620\r\n00:32:57.478 : :00:32:57.392\r\n00:38:34.899 : :00:38:34.812\r\n00:41:36.414 : :00:41:36.327\r\n00:47:13.043 : :00:47:12.955\r\n00:52:04.376 : :00:52:04.288\r\n00:56:07.786 : :00:56:07.698\r\n00:59:08.801 : :00:59:08.712\r\n01:03:43.534 : :01:03:43.319\r\n01:11:45.891 : :01:11:45.801\r\n01:18:55.613 : :01:18:55.522\r\n01:23:54.913 : :01:23:54.821\r\n \nhttp://extraimago.com/images/2016/08/03/cb24afa017de43194d8e5b57601c0353.jpg","torrent":{"xt":"urn:btih:8b4f21579fa7db4574acb6cc62a7c76096dc2880","amp;dn":"Angry+Birds+2016+720p+Dual+5.1+x264+AAC-PEISR","amp;tr":["udp%3A%2F%2Ftracker.leechers-paradise.org%3A6969","udp%3A%2F%2Fzer0day.ch%3A1337","udp%3A%2F%2Fopen.demonii.com%3A1337","udp%3A%2F%2Ftracker.coppersurfer.tk%3A6969","udp%3A%2F%2Fexodus.desync.com%3A6969"],"infoHash":"8b4f21579fa7db4574acb6cc62a7c76096dc2880","infoHashBuffer":{"type":"Buffer","data":[139,79,33,87,159,167,219,69,116,172,182,204,98,167,199,96,150,220,40,128]},"announce":[],"urlList":[]}}